# xmcd
#
# Track frame offsets:
#	150
#	14224
#	28509
#	46291
#	60215
#	77630
#	91827
#	108736
#	125591
#	142610
#	159120
#	173472
#	191666
#	208993
#	224118
#	240067
#	256422
#
# Disc length: 3721
#
# Revision: 1
# Processed by: cddbd v1.5.1PL0 Copyright (c) Steve Scherf et al.
# Submitted via: EasyCDDAExtractor 4.5.0.2
# Normalized: r0:DSETVAR2,TDELIM( - )
#
DISCID=de0e8711
DTITLE=Various Artist - cdx 162
DYEAR=1997
DGENRE=Country
TTITLE0=Regina Regina - Asking For The Moon
TTITLE1=Trasher Shriver - Between The Stones And Jones
TTITLE2=George Strait - Carrying Your Love With Me
TTITLE3=Billy Yates - Flowers
TTITLE4=Diamond Rio - How Your Love Makes Me Feel
TTITLE5=Kippi Brannon - I'd Be With You
TTITLE6=Buffalo Club - Nothin' Less Than Love
TTITLE7=Brady Seals - She
TTITLE8=Emilio - She Gives
TTITLE9=Neal Mccoy - The Shake
TTITLE10=Vern Gosdin - 24 Karat Heartache
TTITLE11=Tobi Keith - We Were In Love
TTITLE12=Collin Raye - What The Heart Wants
TTITLE13=Nash - You And I Could Be Like That
TTITLE14=Jeff Wood - You Call That A Mountain
TTITLE15=Clinton River - Where's The Fire
TTITLE16=Bob Carlisle - Butterfly Kisses
EXTD=
EXTT0=
EXTT1=
EXTT2=
EXTT3=
EXTT4=
EXTT5=
EXTT6=
EXTT7=
EXTT8=
EXTT9=
EXTT10=
EXTT11=
EXTT12=
EXTT13=
EXTT14=
EXTT15=
EXTT16=
PLAYORDER=
